<?xml version="1.0" encoding="UTF-8"?>
<!DOCTYPE svg PUBLIC "-//W3C//DTD SVG 1.1//EN" "http://www.w3.org/Graphics/SVG/1.1/DTD/svg11.dtd">
<!-- Creator: CorelDRAW -->
<svg xmlns="http://www.w3.org/2000/svg" xml:space="preserve" width="1024px" height="1024px" version="1.1" style="shape-rendering:geometricPrecision; text-rendering:geometricPrecision; image-rendering:optimizeQuality; fill-rule:evenodd; clip-rule:evenodd"
viewBox="0 0 1023.24 1023.24"
 xmlns:xlink="http://www.w3.org/1999/xlink"
 xmlns:xodm="http://www.corel.com/coreldraw/odm/2003">
 <defs>
  <style type="text/css">
   <![CDATA[
    .fil0 {fill:#E63F31}
    .fil1 {fill:#FFFBFB;fill-rule:nonzero}
   ]]>
  </style>
 </defs>
 <g id="Layer_x0020_1">
  <metadata id="CorelCorpID_0Corel-Layer"/>
  <rect class="fil0" width="1023.24" height="1023.24" rx="121.25" ry="121.25"/>
  <g id="l15wvHqcw4mvarp6yLxxgSw">
   <g>
    <path id="p18Ug7srIa" class="fil1" d="M660.86 881.74c-1.54,-0.56 -4.91,-3.37 -7.58,-6.04 -5.06,-5.34 -7.02,-13.91 -5.2,-21.63 0.7,-2.53 12.08,-15.03 32.86,-35.81l31.74 -32.02 -195.49 0 -195.49 0 -5.76 6.32c-3.23,3.51 -9.83,8.28 -14.75,10.67 -8.28,4.07 -9.69,4.35 -20.5,3.79 -17.98,-0.98 -29.91,-8.42 -37.22,-23.31 -3.37,-7.02 -3.93,-9.55 -3.79,-19.94 0.14,-12.92 1.69,-17.84 8.85,-27.67 8.85,-12.22 26.12,-18.82 41.43,-15.87 11.09,2.11 20.92,7.44 27.38,15.03l5.34 5.9 196.06 0.14c107.99,0 196.19,-0.43 196.19,-0.99 0,-0.56 -15.17,-16.29 -33.56,-34.83 -28.8,-28.93 -33.85,-34.54 -35.25,-39.6 -4.78,-18.26 14.18,-35.11 31.87,-28.37 5.06,1.83 110.67,107.16 113.48,113.05 2.39,5.2 2.67,12.78 0.7,18.4 -1.68,4.5 -105.33,109.12 -111.23,112.21 -4.07,2.11 -15.59,2.53 -20.08,0.57l0 0z"/>
    <path id="pI5yHww69" class="fil1" d="M367.34 653.38c-29.21,-6.04 -41.99,-11.66 -62.35,-27.81 -17.56,-14.04 -33.29,-38.06 -38.77,-59.12 -1.12,-4.64 -2.94,-14.19 -3.79,-21.21 -2.95,-22.47 3.51,-50.84 16.71,-73.59 3.94,-6.74 14.33,-18.26 39.05,-43.25l33.7 -33.99 6.04 0c14.61,0 21.77,8.14 24.16,27.24 0.84,6.89 1.12,14.47 0.56,16.86 -0.7,3.09 -8.29,11.79 -27.11,31.03 -29.07,29.5 -33.56,36.1 -36.79,53.93 -5.48,31.46 14.6,61.09 47.19,69.66 15.58,4.07 31.45,1.83 47.04,-6.46 6.32,-3.37 19.52,-15.87 59.97,-56.46 56.6,-56.87 59.13,-60.24 62.22,-78.5 3.09,-18.96 -2.95,-33.71 -21.49,-52.81 -14.61,-15.02 -17.14,-20.22 -16.15,-31.46 0.84,-7.58 3.51,-12.07 11.37,-18.53 4.22,-3.38 6.89,-4.36 13.49,-4.78 4.63,-0.28 10.67,0.14 13.62,1.12 7.02,2.39 28.37,23.04 36.93,35.96 21.21,31.6 25.7,70.64 12.22,106.45 -7.3,19.38 -13.34,26.54 -70.08,83.14 -29.49,29.35 -57.16,56.04 -61.37,59.13 -14.18,10.53 -35.25,19.52 -53.93,22.75 -8.14,1.54 -26.68,1.82 -32.44,0.7l0 0z"/>
    <path id="p169QGobmP" class="fil1" d="M461.44 490.05c-7.03,-1.83 -9.27,-3.51 -26.83,-21.49 -18.54,-18.96 -25.14,-29.07 -31.18,-47.19 -4.63,-14.32 -5.89,-43.39 -2.52,-59.26 2.52,-11.52 10.53,-29.35 17.83,-39.47 5.76,-8 99.71,-103.5 114.74,-116.84 12.78,-11.24 33.29,-22.05 50,-26.26 14.04,-3.52 41.01,-3.8 56.74,-0.57 37.35,7.73 69.23,32.02 86.23,65.87 8.56,16.99 12.5,35.11 12.5,57.58 0,27.95 -5.9,48.31 -20.23,69.52 -4.91,7.3 -59.4,63.06 -67.55,68.96 -9.69,7.16 -24.72,4.77 -31.04,-4.92 -2.24,-3.23 -3.37,-9.83 -5.75,-30.62l-0.99 -8.14 28.93 -29.21c24.16,-24.3 29.64,-30.62 33.15,-38.06 5.76,-12.36 7.86,-25.98 5.9,-38.34 -7.45,-45.22 -55.06,-69.94 -97.05,-50.56 -6.46,2.95 -16.99,12.64 -63.62,59.13 -65.86,65.44 -64.88,64.18 -64.88,87.91 0,19.24 3.23,25.98 20.92,44.1 14.89,15.31 17.98,20.36 17.98,29.63 0,17.14 -17.55,32.02 -33.28,28.23l0 0z"/>
   </g>
  </g>
 </g>
</svg>
